<?xml version="1.0" encoding="UTF-8"?>
<svg xmlns="http://www.w3.org/2000/svg" viewBox="0 0 1000 1000">
  <defs>
    <style>
      .cls-1 {
        fill: #6d2fd9;
      }

      .cls-1, .cls-2, .cls-3 {
        mix-blend-mode: multiply;
      }

      .cls-4 {
        isolation: isolate;
      }

      .cls-2 {
        fill: #6526d1;
      }

      .cls-3 {
        fill: #783fdc;
      }
    </style>
  </defs>
  <g class="cls-4">
    <g id="Layer_1" data-name="Layer 1">
      <path class="cls-2" d="M454.44,88.96c39.34-4.14,107.68-4.14,145.99,0l-221.57,822.07c-39.34,4.14-107.68,4.14-145.99,0L454.44,88.96Z"/>
      <path class="cls-3" d="M394.39,825.1c-4.14-48.66-4.14-97.32,0-145.99l235.03-106.64-235.03-106.64c-4.14-48.66-4.14-97.32,0-145.99l369.62,168.76c4.14,55.91,4.14,111.82,0,166.69l-369.62,169.8h0Z"/>
      <path class="cls-1" d="M328.13,649.09c-4.14-48.66-4.14-97.32,0-145.99l235.03-106.64-235.03-106.64c-4.14-48.66-4.14-97.32,0-145.99l369.62,168.76c4.14,55.91,4.14,111.82,0,166.69l-369.62,169.8h0Z"/>
    </g>
  </g>
</svg>